<svg preserveAspectRatio="none" width="100%" height="100%" overflow="visible" style="display: block;" viewBox="0 0 38 53" fill="none" xmlns="http://www.w3.org/2000/svg">
<g id="Vector 16">
<path d="M30.2349 40.9859L20.8121 25.4225L30.2349 17.5211L1 1L9.21476 48.4085L15.4966 33.5634L19.2377 39.3099L25.1611 48.4085L30.2349 40.9859Z" fill="var(--fill-0, #F2EEE3)"/>
<path d="M15.4966 33.5634L9.21476 48.4085L15.0134 51.7606L19.2377 39.3099L15.4966 33.5634Z" fill="black"/>
<path d="M30.2349 40.9859L25.1611 48.4085L30.2349 50.5L37 42.4225L30.2349 40.9859Z" fill="black"/>
<path d="M20.8121 25.4225L30.2349 40.9859L37 42.4225L27.5772 26.8592L37 19.4366L30.2349 17.5211L20.8121 25.4225Z" fill="black"/>
<path d="M1 1L30.2349 17.5211L37 19.4366L6.31544 1H1Z" fill="black"/>
<path d="M30.2349 40.9859L20.8121 25.4225L30.2349 17.5211M30.2349 40.9859L25.1611 48.4085M30.2349 40.9859L37 42.4225M25.1611 48.4085L30.2349 50.5L37 42.4225M25.1611 48.4085L19.2377 39.3099M9.21476 48.4085L15.4966 33.5634L19.2377 39.3099M9.21476 48.4085L1 1M9.21476 48.4085L15.0134 51.7606L19.2377 39.3099M1 1L30.2349 17.5211M1 1H6.31544L37 19.4366M30.2349 17.5211L37 19.4366M37 19.4366L27.5772 26.8592L37 42.4225" stroke="var(--stroke-0, black)" stroke-linecap="round"/>
</g>
</svg>
