<svg preserveAspectRatio="none" width="100%" height="100%" overflow="visible" style="display: block;" viewBox="0 0 2176 700" fill="none" xmlns="http://www.w3.org/2000/svg">
<g id="Group 7">
<line id="Line 11" x1="0.5" y1="700" x2="0.5" stroke="var(--stroke-0, #4CA3FA)"/>
<line id="Line 39" x1="1100.5" y1="700" x2="1100.5" stroke="var(--stroke-0, #4CA3FA)"/>
<line id="Line 15" x1="25.5" y1="700" x2="25.5" stroke="var(--stroke-0, #4CA3FA)"/>
<line id="Line 40" x1="1125.5" y1="700" x2="1125.5" stroke="var(--stroke-0, #4CA3FA)"/>
<line id="Line 10" x1="50.5" y1="700" x2="50.5" stroke="var(--stroke-0, #4CA3FA)"/>
<line id="Line 41" x1="1150.5" y1="700" x2="1150.5" stroke="var(--stroke-0, #4CA3FA)"/>
<line id="Line 14" x1="75.5" y1="700" x2="75.5" stroke="var(--stroke-0, #4CA3FA)"/>
<line id="Line 42" x1="1175.5" y1="700" x2="1175.5" stroke="var(--stroke-0, #4CA3FA)"/>
<line id="Line 12" x1="100.5" y1="700" x2="100.5" stroke="var(--stroke-0, #4CA3FA)"/>
<line id="Line 43" x1="1200.5" y1="700" x2="1200.5" stroke="var(--stroke-0, #4CA3FA)"/>
<line id="Line 16" x1="125.5" y1="700" x2="125.5" stroke="var(--stroke-0, #4CA3FA)"/>
<line id="Line 44" x1="1225.5" y1="700" x2="1225.5" stroke="var(--stroke-0, #4CA3FA)"/>
<line id="Line 1" x1="150.5" y1="700" x2="150.5" stroke="var(--stroke-0, #4CA3FA)"/>
<line id="Line 45" x1="1250.5" y1="700" x2="1250.5" stroke="var(--stroke-0, #4CA3FA)"/>
<line id="Line 2" x1="175.5" y1="700" x2="175.5" stroke="var(--stroke-0, #4CA3FA)"/>
<line id="Line 46" x1="1275.5" y1="700" x2="1275.5" stroke="var(--stroke-0, #4CA3FA)"/>
<line id="Line 3" x1="200.5" y1="700" x2="200.5" stroke="var(--stroke-0, #4CA3FA)"/>
<line id="Line 47" x1="1300.5" y1="700" x2="1300.5" stroke="var(--stroke-0, #4CA3FA)"/>
<line id="Line 4" x1="225.5" y1="700" x2="225.5" stroke="var(--stroke-0, #4CA3FA)"/>
<line id="Line 48" x1="1325.5" y1="700" x2="1325.5" stroke="var(--stroke-0, #4CA3FA)"/>
<line id="Line 5" x1="250.5" y1="700" x2="250.5" stroke="var(--stroke-0, #4CA3FA)"/>
<line id="Line 49" x1="1350.5" y1="700" x2="1350.5" stroke="var(--stroke-0, #4CA3FA)"/>
<line id="Line 7" x1="275.5" y1="700" x2="275.5" stroke="var(--stroke-0, #4CA3FA)"/>
<line id="Line 50" x1="1375.5" y1="700" x2="1375.5" stroke="var(--stroke-0, #4CA3FA)"/>
<line id="Line 6" x1="300.5" y1="700" x2="300.5" stroke="var(--stroke-0, #4CA3FA)"/>
<line id="Line 51" x1="1400.5" y1="700" x2="1400.5" stroke="var(--stroke-0, #4CA3FA)"/>
<line id="Line 8" x1="325.5" y1="700" x2="325.5" stroke="var(--stroke-0, #4CA3FA)"/>
<line id="Line 52" x1="1425.5" y1="700" x2="1425.5" stroke="var(--stroke-0, #4CA3FA)"/>
<line id="Line 9" x1="350.5" y1="700" x2="350.5" stroke="var(--stroke-0, #4CA3FA)"/>
<line id="Line 53" x1="1450.5" y1="700" x2="1450.5" stroke="var(--stroke-0, #4CA3FA)"/>
<line id="Line 13" x1="375.5" y1="700" x2="375.5" stroke="var(--stroke-0, #4CA3FA)"/>
<line id="Line 54" x1="1475.5" y1="700" x2="1475.5" stroke="var(--stroke-0, #4CA3FA)"/>
<line id="Line 11_2" x1="400.5" y1="700" x2="400.5" stroke="var(--stroke-0, #4CA3FA)"/>
<line id="Line 55" x1="1500.5" y1="700" x2="1500.5" stroke="var(--stroke-0, #4CA3FA)"/>
<line id="Line 15_2" x1="425.5" y1="700" x2="425.5" stroke="var(--stroke-0, #4CA3FA)"/>
<line id="Line 56" x1="1525.5" y1="700" x2="1525.5" stroke="var(--stroke-0, #4CA3FA)"/>
<line id="Line 10_2" x1="450.5" y1="700" x2="450.5" stroke="var(--stroke-0, #4CA3FA)"/>
<line id="Line 57" x1="1550.5" y1="700" x2="1550.5" stroke="var(--stroke-0, #4CA3FA)"/>
<line id="Line 14_2" x1="475.5" y1="700" x2="475.5" stroke="var(--stroke-0, #4CA3FA)"/>
<line id="Line 58" x1="1575.5" y1="700" x2="1575.5" stroke="var(--stroke-0, #4CA3FA)"/>
<line id="Line 12_2" x1="500.5" y1="700" x2="500.5" stroke="var(--stroke-0, #4CA3FA)"/>
<line id="Line 59" x1="1600.5" y1="700" x2="1600.5" stroke="var(--stroke-0, #4CA3FA)"/>
<line id="Line 16_2" x1="525.5" y1="700" x2="525.5" stroke="var(--stroke-0, #4CA3FA)"/>
<line id="Line 60" x1="1625.5" y1="700" x2="1625.5" stroke="var(--stroke-0, #4CA3FA)"/>
<line id="Line 34" x1="550.5" y1="700" x2="550.5" stroke="var(--stroke-0, #4CA3FA)"/>
<line id="Line 61" x1="1650.5" y1="700" x2="1650.5" stroke="var(--stroke-0, #4CA3FA)"/>
<line id="Line 37" x1="575.5" y1="700" x2="575.5" stroke="var(--stroke-0, #4CA3FA)"/>
<line id="Line 62" x1="1675.5" y1="700" x2="1675.5" stroke="var(--stroke-0, #4CA3FA)"/>
<line id="Line 33" x1="600.5" y1="700" x2="600.5" stroke="var(--stroke-0, #4CA3FA)"/>
<line id="Line 63" x1="1700.5" y1="700" x2="1700.5" stroke="var(--stroke-0, #4CA3FA)"/>
<line id="Line 36" x1="625.5" y1="700" x2="625.5" stroke="var(--stroke-0, #4CA3FA)"/>
<line id="Line 64" x1="1725.5" y1="700" x2="1725.5" stroke="var(--stroke-0, #4CA3FA)"/>
<line id="Line 35" x1="650.5" y1="700" x2="650.5" stroke="var(--stroke-0, #4CA3FA)"/>
<line id="Line 65" x1="1750.5" y1="700" x2="1750.5" stroke="var(--stroke-0, #4CA3FA)"/>
<line id="Line 38" x1="675.5" y1="700" x2="675.5" stroke="var(--stroke-0, #4CA3FA)"/>
<line id="Line 66" x1="1775.5" y1="700" x2="1775.5" stroke="var(--stroke-0, #4CA3FA)"/>
<line id="Line 17" x1="700.5" y1="700" x2="700.5" stroke="var(--stroke-0, #4CA3FA)"/>
<line id="Line 67" x1="1800.5" y1="700" x2="1800.5" stroke="var(--stroke-0, #4CA3FA)"/>
<line id="Line 25" x1="725.5" y1="700" x2="725.5" stroke="var(--stroke-0, #4CA3FA)"/>
<line id="Line 68" x1="1825.5" y1="700" x2="1825.5" stroke="var(--stroke-0, #4CA3FA)"/>
<line id="Line 21" x1="750.5" y1="700" x2="750.5" stroke="var(--stroke-0, #4CA3FA)"/>
<line id="Line 69" x1="1850.5" y1="700" x2="1850.5" stroke="var(--stroke-0, #4CA3FA)"/>
<line id="Line 29" x1="775.5" y1="700" x2="775.5" stroke="var(--stroke-0, #4CA3FA)"/>
<line id="Line 70" x1="1875.5" y1="700" x2="1875.5" stroke="var(--stroke-0, #4CA3FA)"/>
<line id="Line 19" x1="800.5" y1="700" x2="800.5" stroke="var(--stroke-0, #4CA3FA)"/>
<line id="Line 71" x1="1900.5" y1="700" x2="1900.5" stroke="var(--stroke-0, #4CA3FA)"/>
<line id="Line 27" x1="825.5" y1="700" x2="825.5" stroke="var(--stroke-0, #4CA3FA)"/>
<line id="Line 72" x1="1925.5" y1="700" x2="1925.5" stroke="var(--stroke-0, #4CA3FA)"/>
<line id="Line 23" x1="850.5" y1="700" x2="850.5" stroke="var(--stroke-0, #4CA3FA)"/>
<line id="Line 73" x1="1950.5" y1="700" x2="1950.5" stroke="var(--stroke-0, #4CA3FA)"/>
<line id="Line 31" x1="875.5" y1="700" x2="875.5" stroke="var(--stroke-0, #4CA3FA)"/>
<line id="Line 74" x1="1975.5" y1="700" x2="1975.5" stroke="var(--stroke-0, #4CA3FA)"/>
<line id="Line 18" x1="900.5" y1="700" x2="900.5" stroke="var(--stroke-0, #4CA3FA)"/>
<line id="Line 75" x1="2000.5" y1="700" x2="2000.5" stroke="var(--stroke-0, #4CA3FA)"/>
<line id="Line 26" x1="925.5" y1="700" x2="925.5" stroke="var(--stroke-0, #4CA3FA)"/>
<line id="Line 76" x1="2025.5" y1="700" x2="2025.5" stroke="var(--stroke-0, #4CA3FA)"/>
<line id="Line 22" x1="950.5" y1="700" x2="950.5" stroke="var(--stroke-0, #4CA3FA)"/>
<line id="Line 77" x1="2050.5" y1="700" x2="2050.5" stroke="var(--stroke-0, #4CA3FA)"/>
<line id="Line 30" x1="975.5" y1="700" x2="975.5" stroke="var(--stroke-0, #4CA3FA)"/>
<line id="Line 78" x1="2075.5" y1="700" x2="2075.5" stroke="var(--stroke-0, #4CA3FA)"/>
<line id="Line 20" x1="1000.5" y1="700" x2="1000.5" stroke="var(--stroke-0, #4CA3FA)"/>
<line id="Line 79" x1="2100.5" y1="700" x2="2100.5" stroke="var(--stroke-0, #4CA3FA)"/>
<line id="Line 28" x1="1025.5" y1="700" x2="1025.5" stroke="var(--stroke-0, #4CA3FA)"/>
<line id="Line 80" x1="2125.5" y1="700" x2="2125.5" stroke="var(--stroke-0, #4CA3FA)"/>
<line id="Line 24" x1="1050.5" y1="700" x2="1050.5" stroke="var(--stroke-0, #4CA3FA)"/>
<line id="Line 81" x1="2150.5" y1="700" x2="2150.5" stroke="var(--stroke-0, #4CA3FA)"/>
<line id="Line 32" x1="1075.5" y1="700" x2="1075.5" stroke="var(--stroke-0, #4CA3FA)"/>
<line id="Line 82" x1="2175.5" y1="700" x2="2175.5" stroke="var(--stroke-0, #4CA3FA)"/>
</g>
</svg>
