<svg preserveAspectRatio="none" width="100%" height="100%" overflow="visible" style="display: block;" viewBox="0 0 85 83" fill="none" xmlns="http://www.w3.org/2000/svg">
<g id="Frame 6">
<g id="Vector 18">
<path d="M42.4619 13.2511C40.3621 12.73 35.4274 12.2783 32.4876 14.6408C29.5478 17.0032 16.797 40.1762 10.789 51.4674C10.2057 53.4941 10.1591 57.999 14.6388 59.8055C19.1185 61.6121 28.9878 65.0748 33.3625 66.5803C35.0139 66.6748 37.6785 66.6355 40.0121 66.1764C41.9646 65.7922 43.6853 65.1141 44.3868 63.9746C45.9267 61.4732 57.4526 41.3343 62.9355 32.0118C58.9692 32.5199 53.5248 29.889 52.3069 24.418C51.9947 25.2518 50.4538 25.2286 49.7223 25.1128C47.9725 24.3601 44.3327 22.7851 43.7727 22.5072C43.0728 22.1597 43.5977 20.7701 44.1227 19.9015C44.5427 19.2067 46.2809 19.033 47.0975 19.033L52.099 21.1175C52.1842 20.067 52.4069 18.9439 52.7913 17.7493C52.839 17.5547 52.8961 17.3857 52.9612 17.2464L42.4619 13.2511Z" fill="var(--fill-0, #F2EEE3)"/>
<path d="M71.51 12.5563C66.8436 9.8348 56.601 6.96278 52.9612 17.2464C52.9014 17.4155 52.8448 17.5831 52.7913 17.7493C51.9457 21.1956 54.0407 32.6576 66.9603 28.7113C75.3711 26.1423 74.5431 15.6251 71.51 12.5563Z" fill="#F2EEE3"/>
<path d="M62.9355 32.0118C57.4526 41.3343 45.9267 61.4732 44.3868 63.9746C43.6853 65.1141 41.9646 65.7922 40.0121 66.1764V72.6601C41.587 72.3127 45.1917 70.8535 47.0116 67.7962C49.2865 63.9746 66.6103 33.8772 66.9603 31.2376C65.6217 31.6579 64.2437 31.9191 62.9355 32.0118Z" fill="url(#paint0_linear_0_44)"/>
<path d="M14.6388 59.8055C10.1591 57.999 10.2057 53.4941 10.789 51.4674C7.70924 58.5548 14.6388 65.7117 14.6388 65.7117C19.3051 67.333 29.5828 70.8883 33.3625 72.139C37.1423 73.3897 39.3705 73.0075 40.0121 72.6601V66.1764C37.6785 66.6355 35.0139 66.6748 33.3625 66.5803C28.9878 65.0748 19.1185 61.6121 14.6388 59.8055Z" fill="black"/>
<path d="M71.51 12.5563C74.5431 15.6251 75.3711 26.1423 66.9603 28.7113C54.0407 32.6576 51.9457 21.1956 52.7913 17.7493C52.4069 18.9439 52.1842 20.067 52.099 21.1175C52.0021 22.3122 52.0832 23.413 52.3069 24.418C53.5248 29.889 58.9692 32.5199 62.9355 32.0118C64.2437 31.9191 65.6217 31.6579 66.9603 31.2376C70.6355 30.0837 74.0138 27.7302 74.8348 24.3686C75.2431 21.8787 75.1497 16.0305 71.51 12.5563Z" fill="black"/>
<path d="M10.789 51.4674C16.797 40.1762 29.5478 17.0032 32.4876 14.6408C35.4274 12.2783 40.3621 12.73 42.4619 13.2511L52.9612 17.2464M10.789 51.4674C10.2057 53.4941 10.1591 57.999 14.6388 59.8055C19.1185 61.6121 28.9878 65.0748 33.3625 66.5803C35.0139 66.6748 37.6785 66.6355 40.0121 66.1764M10.789 51.4674C7.70924 58.5548 14.6388 65.7117 14.6388 65.7117C19.3051 67.333 29.5828 70.8883 33.3625 72.139C37.1423 73.3897 39.3705 73.0075 40.0121 72.6601M62.9355 32.0118C57.4526 41.3343 45.9267 61.4732 44.3868 63.9746C43.6853 65.1141 41.9646 65.7922 40.0121 66.1764M62.9355 32.0118C64.2437 31.9191 65.6217 31.6579 66.9603 31.2376M62.9355 32.0118C58.9692 32.5199 53.5248 29.889 52.3069 24.418M52.9612 17.2464C56.601 6.96278 66.8436 9.8348 71.51 12.5563M52.9612 17.2464C52.8961 17.3857 52.839 17.5547 52.7913 17.7493M52.9612 17.2464C52.9014 17.4155 52.8448 17.5831 52.7913 17.7493M71.51 12.5563C74.5431 15.6251 75.3711 26.1423 66.9603 28.7113C54.0407 32.6576 51.9457 21.1956 52.7913 17.7493M71.51 12.5563C75.1497 16.0305 75.2431 21.8787 74.8348 24.3686C74.0138 27.7302 70.6355 30.0837 66.9603 31.2376M62.0606 16.899L65.7354 15.5093L61.5356 22.284M40.0121 66.1764V72.6601M40.0121 72.6601C41.587 72.3127 45.1917 70.8535 47.0116 67.7962C49.2865 63.9746 66.6103 33.8772 66.9603 31.2376M52.099 21.1175L47.0975 19.033C46.2809 19.033 44.5427 19.2067 44.1227 19.9015C43.5977 20.7701 43.0728 22.1597 43.7727 22.5072C44.3327 22.7851 47.9725 24.3601 49.7223 25.1128C50.4538 25.2286 51.9947 25.2518 52.3069 24.418M52.099 21.1175C52.0021 22.3122 52.0832 23.413 52.3069 24.418M52.099 21.1175C52.1842 20.067 52.4069 18.9439 52.7913 17.7493" stroke="var(--stroke-0, black)" stroke-linecap="round"/>
</g>
</g>
<defs>
<linearGradient id="paint0_linear_0_44" x1="42.5" y1="10" x2="42.5" y2="73" gradientUnits="userSpaceOnUse">
<stop stop-color="#FFA12D"/>
<stop offset="1" stop-color="#FF69BA"/>
</linearGradient>
</defs>
</svg>
