<svg preserveAspectRatio="none" width="100%" height="100%" overflow="visible" style="display: block;" viewBox="0 0 1518 1076" fill="none" xmlns="http://www.w3.org/2000/svg">
<g id="Group 16">
<line id="Line 1" y1="150.5" x2="1518" y2="150.5" stroke="var(--stroke-0, #4CA3FA)"/>
<line id="Line 17" y1="700.5" x2="1518" y2="700.5" stroke="var(--stroke-0, #4CA3FA)"/>
<line id="Line 9" y1="350.5" x2="1518" y2="350.5" stroke="var(--stroke-0, #4CA3FA)"/>
<line id="Line 18" y1="900.5" x2="1518" y2="900.5" stroke="var(--stroke-0, #4CA3FA)"/>
<line id="Line 5" y1="250.5" x2="1518" y2="250.5" stroke="var(--stroke-0, #4CA3FA)"/>
<line id="Line 19" y1="800.5" x2="1518" y2="800.5" stroke="var(--stroke-0, #4CA3FA)"/>
<line id="Line 10" y1="450.5" x2="1518" y2="450.5" stroke="var(--stroke-0, #4CA3FA)"/>
<line id="Line 20" y1="1000.5" x2="1518" y2="1000.5" stroke="var(--stroke-0, #4CA3FA)"/>
<line id="Line 3" y1="200.5" x2="1518" y2="200.5" stroke="var(--stroke-0, #4CA3FA)"/>
<line id="Line 21" y1="750.5" x2="1518" y2="750.5" stroke="var(--stroke-0, #4CA3FA)"/>
<line id="Line 11" y1="400.5" x2="1518" y2="400.5" stroke="var(--stroke-0, #4CA3FA)"/>
<line id="Line 22" y1="950.5" x2="1518" y2="950.5" stroke="var(--stroke-0, #4CA3FA)"/>
<line id="Line 6" y1="300.5" x2="1518" y2="300.5" stroke="var(--stroke-0, #4CA3FA)"/>
<line id="Line 23" y1="850.5" x2="1518" y2="850.5" stroke="var(--stroke-0, #4CA3FA)"/>
<line id="Line 12" y1="500.5" x2="1518" y2="500.5" stroke="var(--stroke-0, #4CA3FA)"/>
<line id="Line 24" y1="1050.5" x2="1518" y2="1050.5" stroke="var(--stroke-0, #4CA3FA)"/>
<line id="Line 2" y1="175.5" x2="1518" y2="175.5" stroke="var(--stroke-0, #4CA3FA)"/>
<line id="Line 25" y1="725.5" x2="1518" y2="725.5" stroke="var(--stroke-0, #4CA3FA)"/>
<line id="Line 13" y1="375.5" x2="1518" y2="375.5" stroke="var(--stroke-0, #4CA3FA)"/>
<line id="Line 26" y1="925.5" x2="1518" y2="925.5" stroke="var(--stroke-0, #4CA3FA)"/>
<line id="Line 7" y1="275.5" x2="1518" y2="275.5" stroke="var(--stroke-0, #4CA3FA)"/>
<line id="Line 27" y1="825.5" x2="1518" y2="825.5" stroke="var(--stroke-0, #4CA3FA)"/>
<line id="Line 14" y1="475.5" x2="1518" y2="475.5" stroke="var(--stroke-0, #4CA3FA)"/>
<line id="Line 28" y1="1025.5" x2="1518" y2="1025.5" stroke="var(--stroke-0, #4CA3FA)"/>
<line id="Line 4" y1="225.5" x2="1518" y2="225.5" stroke="var(--stroke-0, #4CA3FA)"/>
<line id="Line 29" y1="775.5" x2="1518" y2="775.5" stroke="var(--stroke-0, #4CA3FA)"/>
<line id="Line 15" y1="425.5" x2="1518" y2="425.5" stroke="var(--stroke-0, #4CA3FA)"/>
<line id="Line 30" y1="975.5" x2="1518" y2="975.5" stroke="var(--stroke-0, #4CA3FA)"/>
<line id="Line 8" y1="325.5" x2="1518" y2="325.5" stroke="var(--stroke-0, #4CA3FA)"/>
<line id="Line 31" y1="875.5" x2="1518" y2="875.5" stroke="var(--stroke-0, #4CA3FA)"/>
<line id="Line 16" y1="525.5" x2="1518" y2="525.5" stroke="var(--stroke-0, #4CA3FA)"/>
<line id="Line 32" y1="1075.5" x2="1518" y2="1075.5" stroke="var(--stroke-0, #4CA3FA)"/>
<line id="Line 10_2" x1="0.00598145" y1="50.5" x2="1518.01" y2="50.5" stroke="var(--stroke-0, #4CA3FA)"/>
<line id="Line 33" x1="0.00598145" y1="600.5" x2="1518.01" y2="600.5" stroke="var(--stroke-0, #4CA3FA)"/>
<line id="Line 11_2" x1="0.00598145" y1="0.5" x2="1518.01" y2="0.5" stroke="var(--stroke-0, #4CA3FA)"/>
<line id="Line 34" x1="0.00598145" y1="550.5" x2="1518.01" y2="550.5" stroke="var(--stroke-0, #4CA3FA)"/>
<line id="Line 12_2" x1="0.00598145" y1="100.5" x2="1518.01" y2="100.5" stroke="var(--stroke-0, #4CA3FA)"/>
<line id="Line 35" x1="0.00598145" y1="650.5" x2="1518.01" y2="650.5" stroke="var(--stroke-0, #4CA3FA)"/>
<line id="Line 14_2" x1="0.00598145" y1="75.5" x2="1518.01" y2="75.5" stroke="var(--stroke-0, #4CA3FA)"/>
<line id="Line 36" x1="0.00598145" y1="625.5" x2="1518.01" y2="625.5" stroke="var(--stroke-0, #4CA3FA)"/>
<line id="Line 15_2" x1="0.00598145" y1="25.5" x2="1518.01" y2="25.5" stroke="var(--stroke-0, #4CA3FA)"/>
<line id="Line 37" x1="0.00598145" y1="575.5" x2="1518.01" y2="575.5" stroke="var(--stroke-0, #4CA3FA)"/>
<line id="Line 16_2" x1="0.00598145" y1="125.5" x2="1518.01" y2="125.5" stroke="var(--stroke-0, #4CA3FA)"/>
<line id="Line 38" x1="0.00598145" y1="675.5" x2="1518.01" y2="675.5" stroke="var(--stroke-0, #4CA3FA)"/>
</g>
</svg>
