<svg preserveAspectRatio="none" width="100%" height="100%" overflow="visible" style="display: block;" viewBox="0 0 106 73" fill="none" xmlns="http://www.w3.org/2000/svg">
<g id="Frame 5">
<g id="Vector 9">
<path d="M59.0461 5.71783C58.3878 0.273003 53.324 -0.777525 48.0639 4.2479C45.132 7.7088 35.2701 18.624 30.4725 18.624C26.0302 18.624 15.1175 18.4267 7.01718 18.624C3.08803 18.7197 1.46747 19.607 1.09007 20.7538C1.07387 20.8502 1.06347 21.2481 1.05743 21.8422C1.4616 23.7004 3.89132 25.7775 4.88489 26.3446C5.40236 26.6399 7.28372 27.4095 11.5483 30.3379C15.8129 33.2664 20.344 35.9287 22.2098 38.5909C23.2205 40.033 22.8217 44.974 22.1555 49.4471C22.1382 49.7738 22.0897 50.1105 22.0005 50.4504C21.7195 52.2084 21.4093 53.8427 21.1437 55.0969C20.9532 60.6149 22.5993 62.2656 24.8752 61.9758C27.6942 61.6169 31.4795 58.2808 33.9374 55.6293C34.737 54.8306 42.7332 44.1816 49.9297 44.4479C59.9515 44.4479 68.4984 44.1816 71.5192 44.1816C79.5153 43.9154 81.3811 39.7091 75.5172 36.1949C74.1845 35.3962 62.4569 29.0068 58.9919 25.8121C55.6024 22.687 57.3927 13.3882 58.9919 8.77365C59.1433 7.63983 59.155 6.61869 59.0461 5.71783Z" fill="var(--fill-0, #F2EEE3)"/>
<path d="M24.8752 61.9758C22.5993 62.2656 20.9532 60.6149 21.1437 55.0969C20.4582 69.1536 23.809 71.6028 24.8752 71.8691V61.9758Z" fill="#F2EEE3"/>
<path d="M24.8752 61.9758C22.5993 62.2656 20.9532 60.6149 21.1437 55.0969C20.4582 69.1536 23.809 71.6028 24.8752 71.8691V61.9758Z" fill="black"/>
<path d="M22.2098 38.5909C20.344 35.9287 15.8129 33.2664 11.5483 30.3379C7.28372 27.4095 5.40236 26.6399 4.88489 26.3446C3.89132 25.7775 1.4616 23.7004 1.05743 21.8422C1.03674 23.8742 1.06698 28.2008 1.09007 30.6042C2.21952 36.4611 14.8001 41.6259 21.4102 46.3114C21.7294 46.8221 22.23 48.0432 22.1555 49.4471C22.8217 44.974 23.2205 40.033 22.2098 38.5909Z" fill="#F2EEE3"/>
<path d="M22.2098 38.5909C20.344 35.9287 15.8129 33.2664 11.5483 30.3379C7.28372 27.4095 5.40236 26.6399 4.88489 26.3446C3.89132 25.7775 1.4616 23.7004 1.05743 21.8422C1.03674 23.8742 1.06698 28.2008 1.09007 30.6042C2.21952 36.4611 14.8001 41.6259 21.4102 46.3114C21.7294 46.8221 22.23 48.0432 22.1555 49.4471C22.8217 44.974 23.2205 40.033 22.2098 38.5909Z" fill="black"/>
<path d="M78.9312 40.6675C78.7128 42.5586 76.1393 44.0278 71.5192 44.1816C68.4984 44.1816 59.9515 44.4479 49.9297 44.4479C42.7332 44.1816 34.737 54.8306 33.9374 55.6293C31.4795 58.2808 27.6942 61.6169 24.8752 61.9758V71.8691C31.8052 73.7326 44.3324 55.0969 46.1982 54.5644C49.6632 51.9022 79.8352 54.458 78.9823 52.1152L78.9312 40.6675Z" fill="url(#paint0_linear_0_4)"/>
<path d="M58.9919 25.8121C55.6024 22.687 57.3927 13.3882 58.9919 8.77365C59.1433 7.63983 59.155 6.61869 59.0461 5.71783M58.9919 25.8121C62.4569 29.0068 74.1845 35.3962 75.5172 36.1949M58.9919 25.8121L75.5172 36.1949M58.9919 25.8121C59.2562 23.1727 61.0923 11.1133 59.0461 5.71783M75.5172 36.1949C81.3811 39.7091 79.5153 43.9154 71.5192 44.1816M71.5192 44.1816C68.4984 44.1816 59.9515 44.4479 49.9297 44.4479C42.7332 44.1816 34.737 54.8306 33.9374 55.6293C31.4795 58.2808 27.6942 61.6169 24.8752 61.9758M71.5192 44.1816C76.1393 44.0278 78.7128 42.5586 78.9312 40.6675L78.9823 52.1152C79.8352 54.458 49.6632 51.9022 46.1982 54.5644C44.3324 55.0969 31.8052 73.7326 24.8752 71.8691M21.1437 55.0969C21.4093 53.8427 21.7195 52.2084 22.0005 50.4504M21.1437 55.0969C20.9532 60.6149 22.5993 62.2656 24.8752 61.9758M21.1437 55.0969C20.4582 69.1536 23.809 71.6028 24.8752 71.8691M58.992 5.57899C59.0103 5.62477 59.0283 5.67105 59.0461 5.71783M1.09007 20.7538C1.46747 19.607 3.08803 18.7197 7.01718 18.624C15.1175 18.4267 26.0302 18.624 30.4725 18.624C35.2701 18.624 45.132 7.7088 48.0639 4.2479C53.324 -0.777525 58.3878 0.273003 59.0461 5.71783M1.09007 20.7538C1.07387 20.8502 1.06347 21.2481 1.05743 21.8422M1.09007 20.7538C0.976797 21.098 0.975518 21.4656 1.05743 21.8422M22.0005 50.4504C22.0897 50.1105 22.1382 49.7738 22.1555 49.4471M22.0005 50.4504C22.0534 50.1198 22.1052 49.7848 22.1555 49.4471M24.8752 61.9758C24.8752 62.6491 24.8752 68.8518 24.8752 71.8691M24.8752 61.9758V71.8691M1.05743 21.8422C1.4616 23.7004 3.89132 25.7775 4.88489 26.3446C5.40236 26.6399 7.28372 27.4095 11.5483 30.3379C15.8129 33.2664 20.344 35.9287 22.2098 38.5909C23.2205 40.033 22.8217 44.974 22.1555 49.4471M1.05743 21.8422C1.03674 23.8742 1.06698 28.2008 1.09007 30.6042C2.21952 36.4611 14.8001 41.6259 21.4102 46.3114C21.7294 46.8221 22.23 48.0432 22.1555 49.4471" stroke="var(--stroke-0, black)"/>
</g>
<g id="Vector 9_2">
<path d="M98.3487 2.59476C98.1293 0.754254 96.4413 0.399146 94.688 2.09788C93.7107 3.26776 90.4234 6.95742 88.8242 6.95742C87.3434 6.95742 83.7058 6.89071 81.0057 6.95742C79.696 6.98977 79.1558 7.28971 79.03 7.67735C79.0246 7.70992 79.0212 7.84444 79.0191 8.04525C79.1539 8.67338 79.9638 9.37548 80.295 9.56717C80.4675 9.66701 81.0946 9.92714 82.5161 10.917C83.9376 11.907 85.448 12.8069 86.0699 13.7068C86.4068 14.1943 86.2739 15.8645 86.0518 17.3765C86.0461 17.4869 86.0299 17.6007 86.0002 17.7156C85.9065 18.3099 85.8031 18.8623 85.7146 19.2863C85.6511 21.1515 86.1998 21.7095 86.9584 21.6115C87.8981 21.4902 89.1598 20.3625 89.9791 19.4662C90.2457 19.1963 92.9111 15.5966 95.3099 15.6866C98.6505 15.6866 101.499 15.5966 102.506 15.5966C105.172 15.5066 105.794 14.0848 103.839 12.8969C103.395 12.6269 99.4856 10.4671 98.3306 9.38719C97.2008 8.33081 97.7976 5.18757 98.3306 3.62771C98.3811 3.24445 98.385 2.89927 98.3487 2.59476Z" fill="var(--fill-0, #F2EEE3)"/>
<path d="M86.9584 21.6115C86.1998 21.7095 85.6511 21.1515 85.7146 19.2863C85.4861 24.0378 86.603 24.8657 86.9584 24.9557V21.6115Z" fill="#F2EEE3"/>
<path d="M86.9584 21.6115C86.1998 21.7095 85.6511 21.1515 85.7146 19.2863C85.4861 24.0378 86.603 24.8657 86.9584 24.9557V21.6115Z" fill="black"/>
<path d="M86.0699 13.7068C85.448 12.8069 83.9376 11.907 82.5161 10.917C81.0946 9.92714 80.4675 9.66701 80.295 9.56717C79.9638 9.37548 79.1539 8.67338 79.0191 8.04525C79.0122 8.73211 79.0223 10.1947 79.03 11.007C79.4065 12.9869 83.6 14.7327 85.8034 16.3165C85.9098 16.4892 86.0767 16.9019 86.0518 17.3765C86.2739 15.8645 86.4068 14.1943 86.0699 13.7068Z" fill="#F2EEE3"/>
<path d="M86.0699 13.7068C85.448 12.8069 83.9376 11.907 82.5161 10.917C81.0946 9.92714 80.4675 9.66701 80.295 9.56717C79.9638 9.37548 79.1539 8.67338 79.0191 8.04525C79.0122 8.73211 79.0223 10.1947 79.03 11.007C79.4065 12.9869 83.6 14.7327 85.8034 16.3165C85.9098 16.4892 86.0767 16.9019 86.0518 17.3765C86.2739 15.8645 86.4068 14.1943 86.0699 13.7068Z" fill="black"/>
<path d="M104.977 14.4087C104.904 15.048 104.046 15.5446 102.506 15.5966C101.499 15.5966 98.6505 15.6866 95.3099 15.6866C92.9111 15.5966 90.2457 19.1963 89.9791 19.4662C89.1598 20.3625 87.8981 21.4902 86.9584 21.6115V24.9557C89.2684 25.5857 93.4441 19.2863 94.0661 19.1063C95.2211 18.2064 105.278 19.0703 104.994 18.2784L104.977 14.4087Z" fill="url(#paint1_linear_0_4)"/>
<path d="M98.3306 9.38719C97.2008 8.33081 97.7976 5.18757 98.3306 3.62771C98.3811 3.24445 98.385 2.89927 98.3487 2.59476M98.3306 9.38719C99.4856 10.4671 103.395 12.6269 103.839 12.8969M98.3306 9.38719L103.839 12.8969M98.3306 9.38719C98.4187 8.49501 99.0308 4.41859 98.3487 2.59476M103.839 12.8969C105.794 14.0848 105.172 15.5066 102.506 15.5966M102.506 15.5966C101.499 15.5966 98.6505 15.6866 95.3099 15.6866C92.9111 15.5966 90.2457 19.1963 89.9791 19.4662C89.1598 20.3625 87.8981 21.4902 86.9584 21.6115M102.506 15.5966C104.046 15.5446 104.904 15.048 104.977 14.4087L104.994 18.2784C105.278 19.0703 95.2211 18.2064 94.0661 19.1063C93.4441 19.2863 89.2684 25.5857 86.9584 24.9557M85.7146 19.2863C85.8031 18.8623 85.9065 18.3099 86.0002 17.7156M85.7146 19.2863C85.6511 21.1515 86.1998 21.7095 86.9584 21.6115M85.7146 19.2863C85.4861 24.0378 86.603 24.8657 86.9584 24.9557M98.3307 2.54783C98.3368 2.5633 98.3428 2.57895 98.3487 2.59476M79.03 7.67735C79.1558 7.28971 79.696 6.98977 81.0057 6.95742C83.7058 6.89071 87.3434 6.95742 88.8242 6.95742C90.4234 6.95742 93.7107 3.26776 94.688 2.09788C96.4413 0.399146 98.1293 0.754254 98.3487 2.59476M79.03 7.67735C79.0246 7.70992 79.0212 7.84444 79.0191 8.04525M79.03 7.67735C78.9923 7.7937 78.9918 7.91796 79.0191 8.04525M86.0002 17.7156C86.0299 17.6007 86.0461 17.4869 86.0518 17.3765M86.0002 17.7156C86.0178 17.6039 86.0351 17.4906 86.0518 17.3765M86.9584 21.6115C86.9584 21.8391 86.9584 23.9358 86.9584 24.9557M86.9584 21.6115V24.9557M79.0191 8.04525C79.1539 8.67338 79.9638 9.37548 80.295 9.56717C80.4675 9.66701 81.0946 9.92714 82.5161 10.917C83.9376 11.907 85.448 12.8069 86.0699 13.7068C86.4068 14.1943 86.2739 15.8645 86.0518 17.3765M79.0191 8.04525C79.0122 8.73211 79.0223 10.1947 79.03 11.007C79.4065 12.9869 83.6 14.7327 85.8034 16.3165C85.9098 16.4892 86.0767 16.9019 86.0518 17.3765" stroke="var(--stroke-0, black)"/>
</g>
</g>
<defs>
<linearGradient id="paint0_linear_0_4" x1="40" y1="1" x2="40" y2="72" gradientUnits="userSpaceOnUse">
<stop offset="0.5" stop-color="#F3B927"/>
<stop offset="0.836538" stop-color="#FF65B1"/>
</linearGradient>
<linearGradient id="paint1_linear_0_4" x1="92" y1="1" x2="92" y2="25" gradientUnits="userSpaceOnUse">
<stop offset="0.5" stop-color="#F3B927"/>
<stop offset="0.836538" stop-color="#FF65B1"/>
</linearGradient>
</defs>
</svg>
