<svg preserveAspectRatio="none" width="100%" height="100%" overflow="visible" style="display: block;" viewBox="0 0 79 78" fill="none" xmlns="http://www.w3.org/2000/svg">
<g id="Vector 5">
<path d="M70.3027 18.0407C68.3019 22.5728 51.9415 57.3057 46.4846 56.7618L53.2148 76.7031C60.1269 78.5159 75.9519 43.1655 77.7709 39.5398C79.226 36.6393 73.395 24.0231 70.3027 18.0407Z" fill="url(#paint0_linear_0_33)"/>
<path d="M3.19317 39.3585C3.19317 40.2045 3.44282 41.9071 3.55698 42.0778C3.92077 42.6216 22.282 56.7618 46.4846 56.7618C51.9415 57.3057 68.3019 22.5728 70.3027 18.0407C70.5428 17.4969 68.5305 11.5495 64.3105 10.5343C59.0355 9.26534 50.6579 9.78338 33.1958 1.62559C31.1949 0.537894 26.8034 0.998783 25.2027 2.01397C22.1104 3.10168 3.04765 37.1831 3.19317 39.3585Z" fill="url(#paint1_linear_0_33)"/>
<path d="M3.19317 39.3585C3.19317 40.2045 3.44282 41.9071 3.55698 42.0778C3.92077 42.6216 22.282 56.7618 46.4846 56.7618C51.9415 57.3057 68.3019 22.5728 70.3027 18.0407C70.5428 17.4969 68.5305 11.5495 64.3105 10.5343C59.0355 9.26534 50.6579 9.78338 33.1958 1.62559C31.1949 0.537894 26.8034 0.998783 25.2027 2.01397C22.1104 3.10168 3.04765 37.1831 3.19317 39.3585Z" fill="#7B69FB"/>
<path d="M3.55698 42.0778C3.44282 41.9071 3.19317 40.2045 3.19317 39.3585C2.46559 46.1265 1 59.9174 1 61.0051C1 62.0306 1.72759 62.4553 3.01129 62.9255L45.5751 76.3405C51.2139 77.4282 52.851 76.8844 53.2148 76.7031L46.4846 56.7618C22.282 56.7618 3.92077 42.6216 3.55698 42.0778Z" fill="url(#paint2_linear_0_33)"/>
<path d="M3.55698 42.0778C3.44282 41.9071 3.19317 40.2045 3.19317 39.3585C2.46559 46.1265 1 59.9174 1 61.0051C1 62.0306 1.72759 62.4553 3.01129 62.9255L45.5751 76.3405C51.2139 77.4282 52.851 76.8844 53.2148 76.7031L46.4846 56.7618C22.282 56.7618 3.92077 42.6216 3.55698 42.0778Z" fill="black"/>
<path d="M3.19317 39.3585C3.19317 40.2045 3.44282 41.9071 3.55698 42.0778C3.92077 42.6216 22.282 56.7618 46.4846 56.7618M3.19317 39.3585C3.04765 37.1831 22.1104 3.10168 25.2027 2.01397C26.8034 0.998783 31.1949 0.537894 33.1958 1.62559C50.6579 9.78338 59.0355 9.26534 64.3105 10.5343C68.5305 11.5495 70.5428 17.4969 70.3027 18.0407M3.19317 39.3585C2.46559 46.1265 1 59.9174 1 61.0051C1 62.0306 1.72759 62.4553 3.01129 62.9255L45.5751 76.3405C51.2139 77.4282 52.851 76.8844 53.2148 76.7031M46.4846 56.7618C51.9415 57.3057 68.3019 22.5728 70.3027 18.0407M46.4846 56.7618L53.2148 76.7031M70.3027 18.0407C73.395 24.0231 79.226 36.6393 77.7709 39.5398C75.9519 43.1655 60.1269 78.5159 53.2148 76.7031" stroke="var(--stroke-0, black)"/>
</g>
<defs>
<linearGradient id="paint0_linear_0_33" x1="42.8363" y1="53.1103" x2="77.9007" y2="36.886" gradientUnits="userSpaceOnUse">
<stop offset="0.394231" stop-color="#FF69BA"/>
<stop offset="1" stop-color="#FFA12D"/>
</linearGradient>
<linearGradient id="paint1_linear_0_33" x1="42.753" y1="53.1103" x2="77.8712" y2="36.8227" gradientUnits="userSpaceOnUse">
<stop offset="0.1875" stop-color="#3396FE"/>
<stop offset="1" stop-color="#E1BBF8"/>
</linearGradient>
<linearGradient id="paint2_linear_0_33" x1="42.753" y1="53.1103" x2="77.8712" y2="36.8227" gradientUnits="userSpaceOnUse">
<stop offset="0.1875" stop-color="#3396FE"/>
<stop offset="1" stop-color="#E1BBF8"/>
</linearGradient>
</defs>
</svg>
