<svg preserveAspectRatio="none" width="100%" height="100%" overflow="visible" style="display: block;" viewBox="0 0 61 84" fill="none" xmlns="http://www.w3.org/2000/svg">
<g id="Vector 17">
<path d="M48.2269 65.5943L33.005 40.4528L48.2269 27.6887L1 1L14.2704 77.5849L24.4183 53.6038L30.4617 62.8868L40.0305 77.5849L48.2269 65.5943Z" fill="var(--fill-0, #F2EEE3)"/>
<path d="M24.4183 53.6038L14.2704 77.5849L23.6377 83L30.4617 62.8868L24.4183 53.6038Z" fill="black"/>
<path d="M48.2269 65.5943L40.0305 77.5849L48.2269 80.9636L59.1554 67.9151L48.2269 65.5943Z" fill="black"/>
<path d="M33.005 40.4528L48.2269 65.5943L59.1554 67.9151L43.9335 42.7736L59.1554 30.783L48.2269 27.6887L33.005 40.4528Z" fill="black"/>
<path d="M1 1L48.2269 27.6887L59.1554 30.783L9.5867 1H1Z" fill="black"/>
<path d="M48.2269 65.5943L33.005 40.4528L48.2269 27.6887M48.2269 65.5943L40.0305 77.5849M48.2269 65.5943L59.1554 67.9151M40.0305 77.5849L48.2269 80.9636L59.1554 67.9151M40.0305 77.5849L30.4617 62.8868M14.2704 77.5849L24.4183 53.6038L30.4617 62.8868M14.2704 77.5849L1 1M14.2704 77.5849L23.6377 83L30.4617 62.8868M1 1L48.2269 27.6887M1 1H9.5867L59.1554 30.783M48.2269 27.6887L59.1554 30.783M59.1554 30.783L43.9335 42.7736L59.1554 67.9151" stroke="var(--stroke-0, black)" stroke-linecap="round"/>
</g>
</svg>
