<svg preserveAspectRatio="none" width="100%" height="100%" overflow="visible" style="display: block;" viewBox="0 0 77 76" fill="none" xmlns="http://www.w3.org/2000/svg">
<g id="Vector 4">
<path d="M68.5026 17.5923C66.5538 22.0051 50.6184 55.8239 45.3032 55.2944L51.8586 74.7109C58.5911 76.476 74.0051 42.0559 75.7768 38.5256C77.1942 35.7014 71.5146 23.4172 68.5026 17.5923Z" fill="url(#paint0_linear_0_46)"/>
<path d="M3.1362 38.3491C3.1362 39.1728 3.37937 40.8306 3.49056 40.9968C3.84491 41.5263 21.7292 55.2944 45.3032 55.2944C50.6184 55.8239 66.5538 22.0051 68.5026 17.5923C68.7365 17.0627 66.7765 11.2719 62.6661 10.2834C57.5281 9.04783 49.368 9.55223 32.3595 1.60912C30.4106 0.550055 26.1332 0.998815 24.574 1.98729C21.5621 3.04637 2.99447 36.2309 3.1362 38.3491Z" fill="url(#paint1_linear_0_46)"/>
<path d="M3.1362 38.3491C3.1362 39.1728 3.37937 40.8306 3.49056 40.9968C3.84491 41.5263 21.7292 55.2944 45.3032 55.2944C50.6184 55.8239 66.5538 22.0051 68.5026 17.5923C68.7365 17.0627 66.7765 11.2719 62.6661 10.2834C57.5281 9.04783 49.368 9.55223 32.3595 1.60912C30.4106 0.550055 26.1332 0.998815 24.574 1.98729C21.5621 3.04637 2.99447 36.2309 3.1362 38.3491Z" fill="#F86601"/>
<path d="M3.49056 40.9968C3.37937 40.8306 3.1362 39.1728 3.1362 38.3491C2.42752 44.9389 1 58.3669 1 59.426C1 60.4245 1.70869 60.8381 2.95905 61.2958L44.4173 74.3579C49.9097 75.4169 51.5042 74.8874 51.8586 74.7109L45.3032 55.2944C21.7292 55.2944 3.84491 41.5263 3.49056 40.9968Z" fill="url(#paint2_linear_0_46)"/>
<path d="M3.49056 40.9968C3.37937 40.8306 3.1362 39.1728 3.1362 38.3491C2.42752 44.9389 1 58.3669 1 59.426C1 60.4245 1.70869 60.8381 2.95905 61.2958L44.4173 74.3579C49.9097 75.4169 51.5042 74.8874 51.8586 74.7109L45.3032 55.2944C21.7292 55.2944 3.84491 41.5263 3.49056 40.9968Z" fill="black"/>
<path d="M3.1362 38.3491C3.1362 39.1728 3.37937 40.8306 3.49056 40.9968C3.84491 41.5263 21.7292 55.2944 45.3032 55.2944M3.1362 38.3491C2.99447 36.2309 21.5621 3.04637 24.574 1.98729C26.1332 0.998815 30.4106 0.550055 32.3595 1.60912C49.368 9.55223 57.5281 9.04783 62.6661 10.2834C66.7765 11.2719 68.7365 17.0627 68.5026 17.5923M3.1362 38.3491C2.42752 44.9389 1 58.3669 1 59.426C1 60.4245 1.70869 60.8381 2.95905 61.2958L44.4173 74.3579C49.9097 75.4169 51.5042 74.8874 51.8586 74.7109M45.3032 55.2944C50.6184 55.8239 66.5538 22.0051 68.5026 17.5923M45.3032 55.2944L51.8586 74.7109M68.5026 17.5923C71.5146 23.4172 77.1942 35.7014 75.7768 38.5256C74.0051 42.0559 58.5911 76.476 51.8586 74.7109" stroke="var(--stroke-0, black)"/>
</g>
<defs>
<linearGradient id="paint0_linear_0_46" x1="41.7496" y1="51.739" x2="75.8991" y2="35.9325" gradientUnits="userSpaceOnUse">
<stop offset="0.394231" stop-color="#3396FE"/>
<stop offset="1" stop-color="#F86601"/>
</linearGradient>
<linearGradient id="paint1_linear_0_46" x1="41.6685" y1="51.739" x2="75.8702" y2="35.8709" gradientUnits="userSpaceOnUse">
<stop offset="0.1875" stop-color="#3396FE"/>
<stop offset="1" stop-color="#E1BBF8"/>
</linearGradient>
<linearGradient id="paint2_linear_0_46" x1="41.6685" y1="51.739" x2="75.8702" y2="35.8709" gradientUnits="userSpaceOnUse">
<stop offset="0.1875" stop-color="#3396FE"/>
<stop offset="1" stop-color="#E1BBF8"/>
</linearGradient>
</defs>
</svg>
