<svg preserveAspectRatio="none" width="100%" height="100%" overflow="visible" style="display: block;" viewBox="0 0 113 71" fill="none" xmlns="http://www.w3.org/2000/svg">
<g id="Group 5">
<g id="Vector 10">
<path d="M19.2073 38.9663L88.8975 59.0571C104.085 57.9566 110.881 49.506 111.871 41.0097C112.045 39.5206 112.041 38.0301 111.871 36.5776C111.742 35.462 111.515 34.3687 111.197 33.3157C109.802 28.6862 106.655 24.8333 102.291 23.2703L31.7641 1.71447C16.9053 -2.05259 -1.09282 9.49967 4.76701 26.4095C5.41971 28.293 7.86438 37.7943 1 38.9663C4.13918 41.6869 12.1755 45.4958 19.2073 38.9663Z" fill="url(#paint0_linear_0_26)"/>
<path d="M19.2073 38.9663L88.8975 59.0571C104.085 57.9566 110.881 49.506 111.871 41.0097C112.045 39.5206 112.041 38.0301 111.871 36.5776C111.742 35.462 111.515 34.3687 111.197 33.3157C109.802 28.6862 106.655 24.8333 102.291 23.2703L31.7641 1.71447C16.9053 -2.05259 -1.09282 9.49967 4.76701 26.4095C5.41971 28.293 7.86438 37.7943 1 38.9663C4.13918 41.6869 12.1755 45.4958 19.2073 38.9663Z" fill="#F2EEE3"/>
<path d="M88.8975 59.0571V69.9396C99.78 69.6438 110.197 64.5792 111.871 52.6921V41.0097C110.881 49.506 104.085 57.9566 88.8975 59.0571Z" fill="url(#paint1_linear_0_26)"/>
<path d="M88.8975 59.0571V69.9396C99.78 69.6438 110.197 64.5792 111.871 52.6921V41.0097C110.881 49.506 104.085 57.9566 88.8975 59.0571Z" fill="url(#paint2_linear_0_26)"/>
<path d="M1 38.9663V43.5704C1.20928 46.1515 3.05094 51.4812 8.74335 52.1509C14.4358 52.8206 18.0912 50.7557 19.2073 49.6395V38.9663C12.1755 45.4958 4.13918 41.6869 1 38.9663Z" fill="url(#paint3_linear_0_26)"/>
<path d="M1 38.9663V43.5704C1.20928 46.1515 3.05094 51.4812 8.74335 52.1509C14.4358 52.8206 18.0912 50.7557 19.2073 49.6395V38.9663C12.1755 45.4958 4.13918 41.6869 1 38.9663Z" fill="var(--fill-1, black)" fill-opacity="0.2"/>
<path d="M88.8975 59.0571L19.2073 38.9663V49.6395L88.8975 69.9396V59.0571Z" fill="url(#paint4_linear_0_26)"/>
<path d="M88.8975 59.0571L19.2073 38.9663V49.6395L88.8975 69.9396V59.0571Z" fill="black"/>
<path d="M19.2073 38.9663L88.8975 59.0571M19.2073 38.9663V49.6395M19.2073 38.9663C12.1755 45.4958 4.13918 41.6869 1 38.9663M88.8975 59.0571V69.9396M88.8975 59.0571C104.085 57.9566 110.881 49.506 111.871 41.0097M1 38.9663C7.86438 37.7943 5.41971 28.293 4.76701 26.4095C-1.09282 9.49967 16.9053 -2.05259 31.7641 1.71447L102.291 23.2703C106.655 24.8333 109.802 28.6862 111.197 33.3157C111.515 34.3687 111.742 35.462 111.871 36.5776M1 38.9663V43.5704C1.20928 46.1515 3.05094 51.4812 8.74335 52.1509C14.4358 52.8206 18.0912 50.7557 19.2073 49.6395M19.2073 49.6395L88.8975 69.9396M88.8975 69.9396C99.78 69.6438 110.197 64.5792 111.871 52.6921V41.0097M111.871 36.5776V41.0097M111.871 36.5776C112.041 38.0301 112.045 39.5206 111.871 41.0097" stroke="var(--stroke-0, black)"/>
</g>
<path id="Vector 11" d="M52.1405 23.5071C57.2021 21.3437 64.1362 26.4659 56.465 31.989C47.8912 35.145 47.0639 25.6768 52.1405 23.5071Z" stroke="var(--stroke-0, black)"/>
<path id="Vector 13" d="M20.4956 15.538C26.1295 13.2427 33.8476 18.6773 25.309 24.5371C15.7659 27.8856 14.845 17.8401 20.4956 15.538Z" stroke="var(--stroke-0, black)"/>
<path id="Vector 12" d="M44.5163 24.8488C46.7737 20.3712 41.4288 14.2371 35.6656 21.0232C32.3724 28.6077 42.2522 29.3395 44.5163 24.8488Z" stroke="var(--stroke-0, black)"/>
</g>
<defs>
<linearGradient id="paint0_linear_0_26" x1="67.551" y1="44.7395" x2="-16.7888" y2="45.158" gradientUnits="userSpaceOnUse">
<stop offset="0.584305" stop-color="white"/>
<stop offset="0.662388" stop-color="#B625FF"/>
</linearGradient>
<linearGradient id="paint1_linear_0_26" x1="67.551" y1="44.7395" x2="-16.7888" y2="45.158" gradientUnits="userSpaceOnUse">
<stop offset="0.584305" stop-color="white"/>
<stop offset="0.662388" stop-color="#B625FF"/>
</linearGradient>
<linearGradient id="paint2_linear_0_26" x1="56.5" y1="1" x2="56.5" y2="69.9396" gradientUnits="userSpaceOnUse">
<stop offset="0.615385" stop-color="white"/>
<stop offset="0.836538" stop-color="#921ECC"/>
</linearGradient>
<linearGradient id="paint3_linear_0_26" x1="67.551" y1="44.7395" x2="-16.7888" y2="45.158" gradientUnits="userSpaceOnUse">
<stop offset="0.584305" stop-color="white"/>
<stop offset="0.662388" stop-color="#B625FF"/>
</linearGradient>
<linearGradient id="paint4_linear_0_26" x1="67.551" y1="44.7395" x2="-16.7888" y2="45.158" gradientUnits="userSpaceOnUse">
<stop offset="0.584305" stop-color="white"/>
<stop offset="0.662388" stop-color="#B625FF"/>
</linearGradient>
</defs>
</svg>
