<svg preserveAspectRatio="none" width="100%" height="100%" overflow="visible" style="display: block;" viewBox="0 0 106 46" fill="none" xmlns="http://www.w3.org/2000/svg">
<g id="Vector 1">
<path d="M2.95611 22.6803L81.0376 45.1755L78.4295 34.7429L1 11.9216L2.95611 22.6803Z" fill="var(--fill-0, black)"/>
<path d="M6.37931 2.14107L1 11.9216L78.4295 34.7429L82.8307 25.2884L6.37931 2.14107Z" fill="#F4EDE3"/>
<path d="M90.4922 24.3103L14.8558 1L6.37931 2.14107L82.8307 25.2884L90.4922 24.3103Z" fill="#F4EDE3"/>
<path fill-rule="evenodd" clip-rule="evenodd" d="M98.9687 42.0041C98.7078 38.8149 100.598 37.2819 101.522 36.9511L90.4922 24.3103L82.8307 25.2884L78.4295 34.7429L81.0376 45.1755L98.9687 42.0041Z" fill="url(#paint0_linear_0_38)"/>
<path d="M105 40.9373L101.522 36.9511C100.598 37.2819 98.7078 38.8149 98.9687 42.0041L105 40.9373Z" fill="var(--fill-0, black)"/>
<path d="M90.4922 24.3103L14.8558 1L6.37931 2.14107M90.4922 24.3103L105 40.9373M90.4922 24.3103L82.8307 25.2884M90.4922 24.3103L101.522 36.9511M105 40.9373L98.9687 42.0041M105 40.9373L101.522 36.9511M81.0376 45.1755L2.95611 22.6803L1 11.9216M81.0376 45.1755L78.4295 34.7429M81.0376 45.1755L98.9687 42.0041M1 11.9216L6.37931 2.14107M1 11.9216L78.4295 34.7429M6.37931 2.14107L82.8307 25.2884M82.8307 25.2884L78.4295 34.7429M101.522 36.9511C100.598 37.2819 98.7078 38.8149 98.9687 42.0041" stroke="var(--stroke-0, black)"/>
</g>
<defs>
<linearGradient id="paint0_linear_0_38" x1="53" y1="1" x2="53" y2="45.1755" gradientUnits="userSpaceOnUse">
<stop offset="0.591346" stop-color="#E69A80"/>
<stop offset="0.807692" stop-color="#F86FB3"/>
</linearGradient>
</defs>
</svg>
