<svg preserveAspectRatio="none" width="100%" height="100%" overflow="visible" style="display: block;" viewBox="0 0 28 28" fill="none" xmlns="http://www.w3.org/2000/svg">
<g id="Frame 4">
<rect x="0.5" y="0.5" width="26.0711" height="26.0711" fill="var(--fill-0, #4BA2FF)"/>
<rect x="0.5" y="0.5" width="26.0711" height="26.0711" stroke="var(--stroke-0, black)"/>
<path id="Arrow 1" d="M9.46967 16.5407L8.93934 17.0711L10 18.1317L10.5303 17.6014L10 17.0711L9.46967 16.5407ZM17.8211 10C17.8211 9.58579 17.4853 9.25 17.0711 9.25L10.3211 9.25C9.90685 9.25 9.57107 9.58579 9.57107 10C9.57107 10.4142 9.90685 10.75 10.3211 10.75H16.3211V16.75C16.3211 17.1642 16.6569 17.5 17.0711 17.5C17.4853 17.5 17.8211 17.1642 17.8211 16.75V10ZM10 17.0711L10.5303 17.6014L17.6014 10.5303L17.0711 10L16.5407 9.46967L9.46967 16.5407L10 17.0711Z" fill="var(--stroke-0, black)"/>
</g>
</svg>
