<svg preserveAspectRatio="none" width="100%" height="100%" overflow="visible" style="display: block;" viewBox="0 0 106 83" fill="none" xmlns="http://www.w3.org/2000/svg">
<g id="Group 6">
<g id="Vector 14">
<path d="M1.14701 53.7396C1.14701 55.0529 1.97288 58.0113 5.27637 59.3385C8.57985 60.6656 51.1122 74.4071 71.9655 81.112C74.0522 81.6359 75.6282 82.0937 76.8807 81.9835L76.8058 76.9309C75.644 77.0345 74.2669 76.5396 72.937 76.0617C72.609 75.9439 72.2838 75.827 71.9655 75.7204C62.6623 72.6059 48.8455 68.1628 36.1162 64.0694L36.1158 64.0692L36.1148 64.0689C20.8175 59.1497 7.0911 54.7356 4.65696 53.7396C2.4731 52.846 1.48737 51.4187 1.14701 49.9836V53.7396Z" fill="#F2EEE3"/>
<path d="M1.14701 53.7396C1.14701 55.0529 1.97288 58.0113 5.27637 59.3385C8.57985 60.6656 51.1122 74.4071 71.9655 81.112C74.0522 81.6359 75.6282 82.0937 76.8807 81.9835L76.8058 76.9309C75.644 77.0345 74.2669 76.5396 72.937 76.0617C72.609 75.9439 72.2838 75.827 71.9655 75.7204C62.6623 72.6059 48.8455 68.1628 36.1162 64.0694L36.1158 64.0692L36.1148 64.0689C20.8175 59.1497 7.0911 54.7356 4.65696 53.7396C2.4731 52.846 1.48737 51.4187 1.14701 49.9836V53.7396Z" fill="black"/>
<path fill-rule="evenodd" clip-rule="evenodd" d="M1.55995 46.067L22.2067 7.91164C26.2463 0.446456 32.3236 0.653824 35.2142 1.27592C55.3104 7.1513 96.7416 19.6486 101.697 22.6347C103.288 23.5934 104.468 25.4284 104.793 26.7538C104.978 27.5086 104.976 28.2476 104.848 28.9577C104.502 30.8845 103.238 32.598 102.316 33.8324C95.2963 47.0348 80.2242 73.4394 78.7789 75.7204C78.2722 76.5202 77.5878 76.8611 76.8058 76.9309C75.644 77.0345 74.2669 76.5396 72.937 76.0617C72.609 75.9439 72.2838 75.827 71.9655 75.7204C62.6623 72.6059 48.8455 68.1628 36.1162 64.0694L36.1158 64.0692L36.1148 64.0689C20.8175 59.1497 7.0911 54.7356 4.65696 53.7396C2.4731 52.846 1.48737 51.4187 1.14701 49.9836C0.792319 48.4881 1.1385 46.9842 1.55995 46.067Z" fill="var(--fill-0, #F2EEE3)"/>
<path d="M102.316 33.8324C95.2963 47.0348 80.2242 73.4394 78.7789 75.7204C78.2722 76.5202 77.5878 76.8611 76.8058 76.9309L76.8807 81.9835C77.611 81.9192 78.2314 81.6619 78.7789 81.112C79.9963 79.8892 91.3128 59.6587 99.8689 44.2866C101.091 42.0909 102.257 39.9944 103.329 38.0665L103.329 38.0655C103.916 37.0098 104.475 36.0046 105 35.0615L104.848 28.9577C104.502 30.8845 103.238 32.598 102.316 33.8324Z" fill="url(#paint0_linear_0_41)"/>
<path d="M102.316 33.8324L22.2067 7.91164M102.316 33.8324C95.2963 47.0348 80.2242 73.4394 78.7789 75.7204C78.2722 76.5202 77.5878 76.8611 76.8058 76.9309M102.316 33.8324C103.238 32.598 104.502 30.8845 104.848 28.9577M22.2067 7.91164L1.55995 46.067C1.1385 46.9842 0.792319 48.4881 1.14701 49.9836M22.2067 7.91164C26.2463 0.446456 32.3236 0.653824 35.2142 1.27592C55.3104 7.1513 96.7416 19.6486 101.697 22.6347C103.288 23.5934 104.468 25.4284 104.793 26.7538M1.14701 48.7628V49.9836M104.793 26.7538C104.978 27.5086 104.976 28.2476 104.848 28.9577M104.793 26.7538L104.848 28.9577M76.8807 81.9835C75.6282 82.0937 74.0522 81.6359 71.9655 81.112C51.1122 74.4071 8.57985 60.6656 5.27637 59.3385C1.97288 58.0113 1.14701 55.0529 1.14701 53.7396V49.9836M76.8807 81.9835C77.611 81.9192 78.2314 81.6619 78.7789 81.112C79.9963 79.8892 91.3128 59.6587 99.8689 44.2866C101.091 42.0909 102.257 39.9944 103.329 38.0665L103.329 38.0655C103.916 37.0098 104.475 36.0046 105 35.0615L104.848 28.9577M76.8807 81.9835L76.8058 76.9309M76.8058 76.9309C75.644 77.0345 74.2669 76.5396 72.937 76.0617C72.609 75.9439 72.2838 75.827 71.9655 75.7204C62.6623 72.6059 48.8455 68.1628 36.1162 64.0694L36.1158 64.0692L36.1148 64.0689C20.8175 59.1497 7.0911 54.7356 4.65696 53.7396C2.4731 52.846 1.48737 51.4187 1.14701 49.9836" stroke="var(--stroke-0, black)"/>
</g>
<path id="Vector 15" d="M31.3489 44.8214L28 33.3929L40.1619 30M37.8705 47.3214L65.7194 38.2143M72.7698 40.1786L77 50.5357L63.7806 55" stroke="var(--stroke-0, black)" stroke-width="4" stroke-linecap="round"/>
</g>
<defs>
<linearGradient id="paint0_linear_0_41" x1="53" y1="1" x2="53" y2="82" gradientUnits="userSpaceOnUse">
<stop stop-color="#41D13C"/>
<stop offset="1" stop-color="#FCD731"/>
</linearGradient>
</defs>
</svg>
